<svg xmlns="http://www.w3.org/2000/svg" width="315" height="78.39999999999999" viewBox="0 0 225 56" fill="none">
  <path fill-rule="evenodd" clip-rule="evenodd"
    d="M67.0882 22.028C65.4483 22.028 64.1 22.6105 63.0437 23.7408C62.0234 24.8693 61.5126 26.2911 61.5126 28.0033C61.5126 31.3929 63.772 33.9797 67.0882 33.9797C70.3309 33.9797 72.6632 31.6104 72.6632 28.0033C72.6632 24.3962 70.3309 22.028 67.0882 22.028ZM77.6556 18.2017V37.8049H72.6632V35.037C71.3518 37.186 69.0196 38.3162 66.2865 38.3162C60.8203 38.3162 56.7399 33.7975 56.7399 28.0033C56.667 22.2826 60.8572 17.5827 66.2865 17.6915C69.0196 17.6915 71.3518 18.7853 72.6632 20.9348V18.2017H77.6556Z"
    fill="#0D155B"></path>
  <path fill-rule="evenodd" clip-rule="evenodd"
    d="M96.3495 37.1138C95.2199 37.8415 93.3249 38.3163 91.5398 38.3163C86.6937 38.3163 84.1428 35.5468 84.1428 30.154V22.5383H79.9526V18.2018H84.1428V12.9912H89.0983V18.2018H95.6213V22.5383H89.0983V30.117C89.0983 32.595 90.1551 33.9064 92.1958 33.9064C93.289 33.9064 94.3094 33.6518 95.2569 33.1411L96.3495 37.1138Z"
    fill="#0D155B"></path>
  <path fill-rule="evenodd" clip-rule="evenodd"
    d="M108.157 22.0647C104.805 22.0647 102.509 24.652 102.509 28.0035C102.509 29.7157 103.019 31.1005 104.076 32.2307C105.132 33.3599 106.481 33.9065 108.157 33.9065C109.833 33.9065 111.182 33.3599 112.238 32.2307C113.295 31.1005 113.841 29.7157 113.841 28.0035C113.841 24.652 111.546 22.0647 108.157 22.0647ZM108.157 17.6917C114.169 17.6917 118.578 22.137 118.578 28.0035C118.578 33.87 114.169 38.3165 108.157 38.3165C102.29 38.3882 97.6265 33.7977 97.7359 28.0035C97.6265 22.2105 102.29 17.6183 108.157 17.6917Z"
    fill="#0D155B"></path>
  <path fill-rule="evenodd" clip-rule="evenodd"
    d="M153.379 37.805H148.423V27.0935C148.423 23.7773 147.038 22.0281 144.524 22.0281C141.937 22.0281 140.042 24.3239 140.042 27.5667V37.805H135.05V27.0935C135.05 23.7773 133.666 22.0281 131.151 22.0281C129.876 22.0281 128.782 22.5383 127.945 23.5951C127.107 24.6519 126.669 25.9632 126.669 27.5667V37.805H121.713V18.2018H126.669V21.0078C127.726 19.0029 129.803 17.6916 132.317 17.6916C135.378 17.6916 137.637 19.0399 138.913 21.5179C140.188 19.1851 142.484 17.6916 145.581 17.6916C150.427 17.6916 153.379 21.0801 153.379 26.7285V37.805Z"
    fill="#0D155B"></path>
  <path fill-rule="evenodd" clip-rule="evenodd"
    d="M157.353 37.8049H162.309V18.2017H157.353V37.8049ZM159.831 9.67493C161.58 9.67493 162.928 10.9874 162.928 12.6267C162.928 14.3389 161.616 15.5779 159.831 15.5779C158.046 15.5779 156.734 14.3389 156.734 12.6267C156.734 10.9874 158.046 9.67493 159.831 9.67493Z"
    fill="#0D155B"></path>
  <path fill-rule="evenodd" clip-rule="evenodd"
    d="M175.864 17.6917C179.617 17.6917 182.823 19.4045 184.609 22.2105L180.565 24.5052C179.544 23.0116 177.868 22.0647 175.864 22.0647C172.512 22.0647 170.216 24.6515 170.216 28.0035C170.216 29.7157 170.726 31.1005 171.782 32.2307C172.839 33.3599 174.188 33.9065 175.864 33.9065C177.904 33.9065 179.58 33.0319 180.565 31.4649L184.609 33.7977C182.823 36.5673 179.617 38.3165 175.864 38.3165C169.997 38.3882 165.333 33.7977 165.443 28.0035C165.333 22.2105 169.997 17.6183 175.864 17.6917Z"
    fill="#0D155B"></path>
  <path fill-rule="evenodd" clip-rule="evenodd"
    d="M196.344 22.028C194.704 22.028 193.356 22.6105 192.299 23.7408C191.279 24.8693 190.768 26.2911 190.768 28.0033C190.768 31.3929 193.028 33.9797 196.344 33.9797C199.587 33.9797 201.919 31.6104 201.919 28.0033C201.919 24.3962 199.587 22.028 196.344 22.028ZM206.911 18.2017V37.8049H201.919V35.037C200.608 37.186 198.275 38.3162 195.542 38.3162C190.076 38.3162 185.996 33.7975 185.996 28.0033C185.923 22.2826 190.113 17.5827 195.542 17.6915C198.275 17.6915 200.608 18.7853 201.919 20.9348V18.2017H206.911Z"
    fill="#0D155B"></path>
  <path fill-rule="evenodd" clip-rule="evenodd"
    d="M26.661 28.0002C26.661 30.3717 24.7385 32.2937 22.367 32.2937C19.9956 32.2937 18.073 30.3717 18.073 28.0002C18.073 25.6288 19.9956 23.7062 22.367 23.7062C24.7385 23.7062 26.661 25.6288 26.661 28.0002Z"
    fill="#0D155B"></path>
  <path fill-rule="evenodd" clip-rule="evenodd"
    d="M22.4984 0.499817C29.4002 0.499817 36.2467 3.2528 41.2033 8.0719C43.2379 10.0502 44.4339 12.6033 44.6901 15.432C45.2119 21.1709 40.983 25.4208 35.244 24.8471C32.0405 24.5268 29.0109 22.4298 27.143 19.864C24.0394 15.602 21.4361 10.9911 16.4215 8.68588C12.181 6.73682 7.40833 7.16859 3.06683 8.54895C8.03943 3.5758 14.9103 0.499817 22.4984 0.499817Z"
    fill="#EE8245"></path>
  <path fill-rule="evenodd" clip-rule="evenodd"
    d="M22.2352 0.499817C15.6713 0.499817 9.15661 2.98998 4.27181 7.37951C2.35311 9.1033 0.900424 11.3174 0.306872 13.8274C-1.23692 20.3554 3.2277 25.4727 9.4901 24.8471C12.6936 24.5268 15.7227 22.4298 17.5911 19.864C20.6942 15.602 23.2975 10.9911 28.3126 8.68588C32.5531 6.73682 37.3258 7.16859 41.6667 8.54895C36.6942 3.5758 29.8238 0.499817 22.2352 0.499817Z"
    fill="#FFC841"></path>
  <path fill-rule="evenodd" clip-rule="evenodd"
    d="M22.2352 55.5C15.334 55.5 8.48686 52.7476 3.53083 47.9279C1.49618 45.9496 0.300244 43.397 0.0434977 40.5684C-0.478277 34.8289 3.75113 30.579 9.4901 31.1527C12.6936 31.473 15.7227 33.57 17.5911 36.1364C20.6942 40.3983 23.2975 45.0087 28.3126 47.3145C32.5531 49.2635 37.3258 48.8318 41.6667 47.4514C36.6941 52.424 29.8238 55.5 22.2352 55.5Z"
    fill="#EE8245"></path>
  <path fill-rule="evenodd" clip-rule="evenodd"
    d="M22.4984 55.5C29.4002 55.5 36.2467 52.7476 41.2033 47.9279C43.2379 45.9496 44.4339 43.397 44.6901 40.5684C45.2119 34.8289 40.983 30.579 35.244 31.1527C32.0405 31.473 29.0109 33.57 27.143 36.1364C24.0394 40.3983 21.4361 45.0087 16.4215 47.3145C12.181 49.2635 7.40833 48.8318 3.06683 47.4514C8.03943 52.424 14.9103 55.5 22.4984 55.5Z"
    fill="#FFC841"></path>
  <path fill-rule="evenodd" clip-rule="evenodd"
    d="M215.62 18.7625V23.2475H214.443V18.7625H212.71V17.6975H217.36V18.7625H215.62ZM219.698 19.7825V23.2475H218.565V17.6975H219.72L221.543 20.9L223.373 17.6975H224.513V23.2475H223.365V19.805L222.023 22.16H221.055L219.698 19.7825Z"
    fill="#0D155B"></path>
</svg>